<svg xmlns="http://www.w3.org/2000/svg" width="30.441" height="30.441" viewBox="0 0 30.441 30.441"><defs><style>.a{fill:#fff;}</style></defs><path class="a" d="M943.962,1198.216v-6.55h2.2l.329-2.552h-2.527v-1.63c0-.739.2-1.243,1.265-1.243h1.351v-2.283a18.017,18.017,0,0,0-1.97-.1,3.076,3.076,0,0,0-3.283,3.374v1.883h-2.2v2.552h2.2v6.55Z" transform="translate(-927.63 -1175.816)"/><path class="a" d="M928.444,1196.177a15.22,15.22,0,1,1,15.22-15.221A15.237,15.237,0,0,1,928.444,1196.177Zm0-28.718a13.5,13.5,0,1,0,13.5,13.5A13.513,13.513,0,0,0,928.444,1167.459Z" transform="translate(-913.223 -1165.736)"/></svg>