<svg xmlns="http://www.w3.org/2000/svg" width="229" height="57.2" viewBox="0 0 229 57.2"><defs><style>.a,.b{fill:#fff;}.b{fill-rule:evenodd;}</style></defs><g transform="translate(-62.986 -223.818)"><path class="a" d="M282.293,280.989h-.6V223.95h.6v57.039Z" transform="translate(-143.091 -0.087)"/><path class="a" d="M341.452,241.5V224.013h4.427v14.264h6.4l.6,3.22Z" transform="translate(-182.186 -0.128)"/><path class="a" d="M392.3,241.552l-1.814-4.392h-7.614l-1.736,4.21H376.81l7.744-17.552h4.556l7.565,17.069Zm-5.621-13.64-2.613,6.326h5.23Z" transform="translate(-205.319 0)"/><path class="a" d="M448.193,241.5l-.309-1.749a11.267,11.267,0,0,1-6.243,1.955c-4.145,0-6.552-1.725-6.552-5.866V224.013h4.427v11.341c0,2.117.985,3.151,3.185,3.151a7.694,7.694,0,0,0,4.767-1.793v-12.7h4.454V241.5Z" transform="translate(-243.448 -0.128)"/><path class="a" d="M505.34,241.68l-5.127-6.832h-1.321v6.65h-4.325V224.013H501.2c4.586,0,7.278,1.841,7.278,5.269,0,2.484-1.45,4.048-3.936,4.808l5.307,6.925Zm-4.585-14.813h-1.89V232.2h1.813c2.3,0,3.576-.851,3.576-2.669C504.254,227.809,503.06,226.866,500.756,226.866Z" transform="translate(-282.361 -0.128)"/><path class="a" d="M543.66,241.5V224.013h11.834v3.015h-7.459v3.841h5.621l.57,3.084h-6.191v4.53h7.744V241.5Z" transform="translate(-314.48 -0.128)"/><path class="a" d="M595.468,241.552l-1.812-4.392H586.04l-1.735,4.21H579.98l7.745-17.552h4.559l7.562,17.069Zm-5.619-13.64-2.616,6.326h5.231Z" transform="translate(-338.242 0)"/><path class="a" d="M639.22,227.143V241.5h-4.428V227.143H628.6v-3.13h16.574l.571,3.13Z" transform="translate(-370.053 -0.128)"/><path class="a" d="M682.689,241.5V224.013h11.834v3.015h-7.456v3.841h5.618l.569,3.084h-6.187v4.53h7.742V241.5Z" transform="translate(-405.44 -0.128)"/><path class="a" d="M341.452,312.044V300.132h.943v11.912Z" transform="translate(-182.186 -49.928)"/><path class="a" d="M364.126,312.044l-8.379-10.464v10.464h-.906V300.132h.833l8.126,10.157V300.132h.907v11.912Z" transform="translate(-190.946 -49.928)"/><path class="a" d="M393.436,300.873v11.171h-.944V300.873h-4.408v-.741h9.595l.128.741Z" transform="translate(-212.695 -49.928)"/><path class="a" d="M421.8,312.044V300.132h6.746v.741h-5.8v4.556h4.642l.126.74h-4.769V311.3h6v.741Z" transform="translate(-234.755 -49.928)"/><path class="a" d="M456.591,312.171l-4.662-5.7h-1.9v5.571h-.943V300.132h3.264c2.414,0,4.135,1.254,4.135,3.122,0,1.721-1.468,2.848-3.482,3.14l4.571,5.585Zm-4.317-11.3h-2.248v4.875h2.048c2.123,0,3.465-.852,3.465-2.461C455.539,301.742,454.323,300.873,452.274,300.873Z" transform="translate(-252.603 -49.928)"/><path class="a" d="M488.467,312.044l-8.381-10.464v10.464h-.905V300.132h.834l8.124,10.157V300.132h.907v11.912Z" transform="translate(-272.295 -49.928)"/><path class="a" d="M523.4,312.05l-1.868-4.2h-6.059l-1.813,4.072h-.98l5.424-11.976h.852l5.4,11.911Zm-4.9-10.991-2.7,6.05h5.4Z" transform="translate(-294.215 -49.807)"/><path class="a" d="M548.557,300.873v11.171h-.946V300.873h-4.4v-.741H552.8l.127.741Z" transform="translate(-314.183 -49.928)"/><path class="a" d="M578.323,312.044V300.132h.945v11.912Z" transform="translate(-337.158 -49.928)"/><path class="a" d="M594.7,311.842a6.185,6.185,0,1,1,5.984-6.2A5.835,5.835,0,0,1,594.7,311.842Zm.019-11.621c-3.028,0-5.024,2.2-5.024,5.441s2.029,5.44,5.024,5.44c3.027,0,5.022-2.2,5.022-5.44S597.714,300.221,594.721,300.221Z" transform="translate(-343.982 -49.502)"/><path class="a" d="M639.044,312.044l-8.377-10.464v10.464h-.908V300.132h.834l8.126,10.157V300.132h.907v11.912Z" transform="translate(-370.81 -49.928)"/><path class="a" d="M676.216,312.05l-1.867-4.2h-6.058l-1.814,4.072H665.5l5.424-11.976h.853l5.4,11.911Zm-4.9-10.991-2.7,6.05h5.406Z" transform="translate(-394.191 -49.807)"/><path class="a" d="M706.486,312.044V300.132h.941V311.3h5.441l.127.741Z" transform="translate(-421.009 -49.928)"/><path class="a" d="M350.52,366.3l-.273-1.481a7.189,7.189,0,0,1-4.334,1.625c-2.684,0-4.461-1.207-4.461-3.958v-8.1h.943v8.048c0,2.206,1.3,3.267,3.572,3.267a6.755,6.755,0,0,0,4.244-1.754v-9.56h.942V366.3Z" transform="translate(-182.186 -85.425)"/><path class="a" d="M388.174,366.3l-8.38-10.463V366.3h-.907V354.387h.835l8.125,10.157V354.387h.907V366.3Z" transform="translate(-206.678 -85.425)"/><path class="a" d="M417.015,366.3V354.387h.941V366.3Z" transform="translate(-231.623 -85.425)"/><path class="a" d="M430.95,366.119h-.726l-5.351-11.911.96-.193,4.79,10.865,4.733-10.737h.98Z" transform="translate(-236.764 -85.181)"/><path class="a" d="M464.047,366.3V354.387h6.747v.741h-5.805v4.556h4.643l.128.741h-4.771v5.135h6v.74Z" transform="translate(-262.393 -85.425)"/><path class="a" d="M497.671,366.426l-4.662-5.7h-1.9v5.57h-.941V354.387h3.263c2.412,0,4.135,1.254,4.135,3.123,0,1.721-1.468,2.849-3.482,3.14l4.571,5.583Zm-4.317-11.3H491.1V360h2.051c2.122,0,3.462-.852,3.462-2.461C496.617,356,495.406,355.128,493.354,355.128Z" transform="translate(-279.48 -85.425)"/><path class="a" d="M522.394,366.171a8.107,8.107,0,0,1-3.392-.707l.145-.854a6.987,6.987,0,0,0,3.338.819c1.795,0,3.065-1,3.065-2.366,0-1.191-.708-1.818-2.941-2.767-2.519-1.079-3.5-1.788-3.5-3.445s1.667-2.881,3.717-2.881a6.556,6.556,0,0,1,2.884.6l-.145.851a5.325,5.325,0,0,0-2.792-.707c-1.634,0-2.72.982-2.72,2.092,0,1.191.87,1.851,2.956,2.7,2.394,1,3.482,1.8,3.482,3.444C526.492,364.869,524.768,366.171,522.394,366.171Z" transform="translate(-298.348 -85.152)"/><path class="a" d="M548.484,366.3V354.387h.942V366.3Z" transform="translate(-317.636 -85.425)"/><path class="a" d="M561.433,355.128V366.3h-.945V355.128h-4.407v-.741h9.593l.128.741Z" transform="translate(-322.607 -85.425)"/><path class="a" d="M590.007,366.3V354.387h.943V366.3Z" transform="translate(-344.803 -85.425)"/><path class="a" d="M602.227,366.3V354.387h6.746v.741h-5.8v4.556h4.643l.127.741h-4.77v5.135h6v.74Z" transform="translate(-352.797 -85.425)"/><path class="a" d="M630.789,366.171a8.107,8.107,0,0,1-3.392-.707l.146-.854a6.984,6.984,0,0,0,3.335.819c1.8,0,3.065-1,3.065-2.366,0-1.191-.706-1.818-2.937-2.767-2.52-1.079-3.5-1.788-3.5-3.445s1.667-2.881,3.716-2.881a6.567,6.567,0,0,1,2.883.6l-.145.851a5.331,5.331,0,0,0-2.794-.707c-1.632,0-2.719.982-2.719,2.092,0,1.191.87,1.851,2.956,2.7,2.394,1,3.481,1.8,3.481,3.444C634.886,364.869,633.163,366.171,630.789,366.171Z" transform="translate(-369.265 -85.152)"/><path class="b" d="M96.545,231.222a66.6,66.6,0,0,1,23.356-7.368s.662,15.243-11.325,31.077H96.545ZM62.993,280.914s-.854-19.68,16.966-37.546a66.754,66.754,0,0,1,11.7-9.338v25.281h13.274q-.956,1.048-1.993,2.088A69.191,69.191,0,0,1,62.993,280.914Z" transform="translate(0 -0.024)"/><g transform="translate(266.284 268.962)"><path class="a" d="M652.518,357.566a1.485,1.485,0,0,1-1.545-1.586,1.549,1.549,0,1,1,1.545,1.586Zm.008-2.995a1.408,1.408,0,1,0,1.327,1.409A1.3,1.3,0,0,0,652.526,354.571Zm.451,2.257-.527-.753h-.171v.726h-.293v-1.758h.526c.369,0,.615.185.615.513a.477.477,0,0,1-.355.485l.512.718Zm-.465-1.511h-.233v.52h.219c.2,0,.321-.083.321-.26S652.709,355.317,652.512,355.317Z" transform="translate(-650.973 -354.387)"/></g></g></svg>