<svg xmlns="http://www.w3.org/2000/svg" width="30.441" height="30.441" viewBox="0 0 30.441 30.441"><defs><style>.a{fill:#fff;}</style></defs><g transform="translate(8.903 8.914)"><path class="a" d="M799.021,1190.013h2.621v8.425h-2.621Zm1.311-4.188a1.518,1.518,0,1,1-1.519,1.518,1.519,1.519,0,0,1,1.519-1.518" transform="translate(-798.813 -1185.825)"/><path class="a" d="M808.89,1195h2.51v1.152h.036a2.749,2.749,0,0,1,2.477-1.361c2.651,0,3.141,1.744,3.141,4.013v4.62h-2.618v-4.1c0-.977-.016-2.234-1.36-2.234-1.362,0-1.57,1.065-1.57,2.164v4.167H808.89Z" transform="translate(-804.419 -1190.813)"/></g><path class="a" d="M793.969,1196.177a15.22,15.22,0,1,1,15.221-15.221A15.237,15.237,0,0,1,793.969,1196.177Zm0-28.718a13.5,13.5,0,1,0,13.5,13.5A13.513,13.513,0,0,0,793.969,1167.459Z" transform="translate(-778.749 -1165.736)"/></svg>