<svg xmlns="http://www.w3.org/2000/svg" width="30.44" height="30.441" viewBox="0 0 30.44 30.441"><defs><style>.a{fill:#fff;}</style></defs><g transform="translate(8.328 8.328)"><path class="a" d="M1207.829,1185.747c1.841,0,2.059.007,2.785.04a3.809,3.809,0,0,1,1.28.237,2.286,2.286,0,0,1,1.308,1.308,3.816,3.816,0,0,1,.237,1.28c.033.727.04.945.04,2.785s-.007,2.059-.04,2.785a3.817,3.817,0,0,1-.237,1.28,2.284,2.284,0,0,1-1.308,1.308,3.814,3.814,0,0,1-1.28.237c-.727.033-.945.04-2.785.04s-2.058-.006-2.785-.04a3.815,3.815,0,0,1-1.28-.237,2.281,2.281,0,0,1-1.308-1.308,3.819,3.819,0,0,1-.237-1.28c-.033-.727-.04-.944-.04-2.785s.007-2.058.04-2.785a3.817,3.817,0,0,1,.237-1.28,2.283,2.283,0,0,1,1.308-1.308,3.81,3.81,0,0,1,1.28-.237c.727-.033.945-.04,2.785-.04m0-1.242c-1.872,0-2.106.008-2.842.041a5.066,5.066,0,0,0-1.673.32,3.524,3.524,0,0,0-2.015,2.016,5.061,5.061,0,0,0-.32,1.673c-.033.735-.042.97-.042,2.841s.008,2.107.042,2.842a5.06,5.06,0,0,0,.32,1.673,3.525,3.525,0,0,0,2.015,2.016,5.066,5.066,0,0,0,1.673.32c.735.033.97.041,2.842.041s2.106-.008,2.842-.041a5.062,5.062,0,0,0,1.673-.32,3.526,3.526,0,0,0,2.015-2.016,5.05,5.05,0,0,0,.321-1.673c.034-.735.042-.97.042-2.842s-.008-2.106-.042-2.841a5.051,5.051,0,0,0-.321-1.673,3.526,3.526,0,0,0-2.015-2.016,5.062,5.062,0,0,0-1.673-.32c-.735-.034-.97-.041-2.842-.041Z" transform="translate(-1200.937 -1184.505)"/><path class="a" d="M1212.033,1192.061a3.539,3.539,0,1,0,3.539,3.539A3.539,3.539,0,0,0,1212.033,1192.061Zm0,5.837a2.3,2.3,0,1,1,2.3-2.3A2.3,2.3,0,0,1,1212.033,1197.9Z" transform="translate(-1205.141 -1188.708)"/><circle class="a" cx="0.827" cy="0.827" r="0.827" transform="translate(9.744 2.386)"/></g><path class="a" d="M1197.39,1196.177a15.22,15.22,0,1,1,15.22-15.221A15.237,15.237,0,0,1,1197.39,1196.177Zm0-28.718a13.5,13.5,0,1,0,13.5,13.5A13.513,13.513,0,0,0,1197.39,1167.459Z" transform="translate(-1182.169 -1165.736)"/></svg>