<svg xmlns="http://www.w3.org/2000/svg" width="30.441" height="30.441" viewBox="0 0 30.441 30.441"><defs><style>.a{fill:#fff;}</style></defs><g transform="translate(8.041 9.386)"><path class="a" d="M532.442,1198.557a8.325,8.325,0,0,0,8.381-8.382c0-.127,0-.255-.008-.381a6,6,0,0,0,1.47-1.525,5.872,5.872,0,0,1-1.692.464,2.956,2.956,0,0,0,1.3-1.629,5.913,5.913,0,0,1-1.87.715,2.948,2.948,0,0,0-5.02,2.687,8.363,8.363,0,0,1-6.072-3.078,2.948,2.948,0,0,0,.912,3.932,2.925,2.925,0,0,1-1.334-.369c0,.012,0,.025,0,.038a2.947,2.947,0,0,0,2.363,2.888,2.948,2.948,0,0,1-1.33.051,2.949,2.949,0,0,0,2.752,2.046,5.91,5.91,0,0,1-3.659,1.261,6.012,6.012,0,0,1-.7-.041,8.339,8.339,0,0,0,4.516,1.323" transform="translate(-527.926 -1186.888)"/></g><path class="a" d="M525.025,1196.177a15.22,15.22,0,1,1,15.221-15.221A15.237,15.237,0,0,1,525.025,1196.177Zm0-28.718a13.5,13.5,0,1,0,13.5,13.5A13.512,13.512,0,0,0,525.025,1167.459Z" transform="translate(-509.804 -1165.736)"/></svg>