<svg xmlns="http://www.w3.org/2000/svg" width="30.441" height="30.441" viewBox="0 0 30.441 30.441"><defs><style>.a{fill:#fff;}</style></defs><path class="a" d="M7.179,10.1h0c-.037,0-3.743-.034-4.882-.144-.055-.01-.121-.018-.2-.028A2.113,2.113,0,0,1,.714,9.341a3.146,3.146,0,0,1-.57-1.425A22.016,22.016,0,0,1,0,5.591V4.5A21.834,21.834,0,0,1,.144,2.178,3.11,3.11,0,0,1,.714.753a1.984,1.984,0,0,1,1.348-.6h.007L2.153.145C4.139,0,7.146,0,7.177,0s3.043,0,5.029.145l.084.009H12.3a1.984,1.984,0,0,1,1.348.6,3.147,3.147,0,0,1,.57,1.425A22.016,22.016,0,0,1,14.359,4.5V5.591a22,22,0,0,1-.144,2.324,3.144,3.144,0,0,1-.57,1.425,1.98,1.98,0,0,1-1.346.6h-.007l-.086.009C10.22,10.092,7.208,10.1,7.179,10.1ZM5.7,2.877h0V6.913L9.577,4.9,5.7,2.877Z" transform="translate(8.041 10.171)"/><path class="a" d="M1062.916,1196.177a15.22,15.22,0,1,1,15.221-15.221A15.237,15.237,0,0,1,1062.916,1196.177Zm0-28.718a13.5,13.5,0,1,0,13.5,13.5A13.512,13.512,0,0,0,1062.916,1167.459Z" transform="translate(-1047.695 -1165.736)"/></svg>